<?xml version="1.0" standalone="no"?>
<!DOCTYPE svg PUBLIC "-//W3C//DTD SVG 20010904//EN"
 "http://www.w3.org/TR/2001/REC-SVG-20010904/DTD/svg10.dtd">
<svg version="1.0" xmlns="http://www.w3.org/2000/svg"
 width="64.000000pt" height="64.000000pt" viewBox="0 0 64.000000 64.000000"
 preserveAspectRatio="xMidYMid meet">

<g transform="translate(0.000000,64.000000) scale(0.100000,-0.100000)"
fill="#000000" stroke="none">
<path d="M282 442 c-9 -6 -6 -12 13 -20 38 -18 33 -56 -15 -108 -50 -55 -52
-80 -5 -100 72 -30 75 -27 75 91 0 63 4 105 10 105 6 0 10 -22 10 -49 0 -34 5
-51 15 -55 36 -13 60 59 31 96 -12 17 -85 48 -110 48 -6 0 -17 -4 -24 -8z"/>
<path d="M212 385 c-14 -31 -15 -94 -2 -115 9 -13 10 -13 10 1 0 8 14 37 30
63 24 38 28 51 19 62 -18 22 -45 17 -57 -11z"/>
<path d="M360 271 c0 -18 3 -19 30 -10 16 6 37 9 47 7 12 -3 2 -9 -27 -19 -26
-9 -46 -23 -48 -33 -3 -14 5 -13 64 9 37 14 70 28 73 31 14 14 -37 34 -86 34
-46 0 -53 -3 -53 -19z"/>
</g>
</svg>
