<?xml version="1.0" standalone="no"?>
<!DOCTYPE svg PUBLIC "-//W3C//DTD SVG 20010904//EN"
 "http://www.w3.org/TR/2001/REC-SVG-20010904/DTD/svg10.dtd">
<svg version="1.0" xmlns="http://www.w3.org/2000/svg"
 width="64.000000pt" height="64.000000pt" viewBox="0 0 64.000000 64.000000"
 preserveAspectRatio="xMidYMid meet">

<g transform="translate(0.000000,64.000000) scale(0.100000,-0.100000)"
fill="#000000" stroke="none">
<path d="M101 607 c-62 -22 -76 -53 -79 -185 -2 -67 1 -129 7 -144 10 -27 12
-28 94 -28 80 0 84 -1 95 -25 6 -14 16 -25 22 -25 5 0 10 -7 10 -15 0 -9 7
-18 15 -21 11 -5 15 -22 15 -70 l0 -64 35 0 35 0 0 58 c0 42 5 62 18 74 32 32
49 53 55 71 5 14 19 17 85 17 47 0 83 5 90 12 8 8 12 62 12 175 l0 163 -26 10
c-37 14 -441 12 -483 -3z m90 -30 c26 -20 39 -53 39 -101 l0 -46 -80 0 -80 0
0 -81 c0 -51 -4 -78 -10 -74 -6 4 -10 60 -10 136 0 125 1 131 25 154 27 28 88
34 116 12z m394 -147 l0 -155 -161 -3 -162 -2 -4 133 c-3 106 -7 139 -21 161
l-18 26 183 -2 183 -3 0 -155z m-355 -44 c0 -37 -27 -40 -73 -6 l-41 30 57 0
c53 0 57 -1 57 -24z m-78 -32 c40 -28 52 -33 64 -23 12 9 14 5 14 -25 l0 -36
-70 0 -70 0 0 60 c0 33 3 60 6 60 4 0 29 -16 56 -36z m246 -116 c-3 -9 -31
-14 -81 -16 -64 -2 -77 0 -77 13 0 12 15 15 81 15 60 0 80 -3 77 -12z m-38
-48 c0 -5 -20 -10 -45 -10 -25 0 -45 5 -45 10 0 6 20 10 45 10 25 0 45 -4 45
-10z m-30 -90 c0 -27 -4 -50 -10 -50 -5 0 -10 23 -10 50 0 28 5 50 10 50 6 0
10 -22 10 -50z"/>
<path d="M382 338 l3 -43 90 0 90 0 3 43 3 42 -96 0 -96 0 3 -42z m158 2 c0
-18 -7 -20 -65 -20 -58 0 -65 2 -65 20 0 18 7 20 65 20 58 0 65 -2 65 -20z"/>
</g>
</svg>
