<?xml version="1.0" encoding="UTF-8"?>
<!DOCTYPE svg PUBLIC "-//W3C//DTD SVG 1.1//EN" "http://www.w3.org/Graphics/SVG/1.1/DTD/svg11.dtd">
<svg xmlns="http://www.w3.org/2000/svg" version="1.1" width="64px" height="64px" style="shape-rendering:geometricPrecision; text-rendering:geometricPrecision; image-rendering:optimizeQuality; fill-rule:evenodd; clip-rule:evenodd" xmlns:xlink="http://www.w3.org/1999/xlink">
<g><path style="opacity:1" fill="#fcfcfc" d="M -0.5,-0.5 C 20.8333,-0.5 42.1667,-0.5 63.5,-0.5C 63.5,20.8333 63.5,42.1667 63.5,63.5C 42.1667,63.5 20.8333,63.5 -0.5,63.5C -0.5,42.1667 -0.5,20.8333 -0.5,-0.5 Z"/></g>
<g><path style="opacity:1" fill="#262626" d="M 43.5,2.5 C 44.3764,2.36912 45.0431,2.70245 45.5,3.5C 44.8257,5.51654 43.6591,7.18321 42,8.5C 41.5,8 41,7.5 40.5,7C 41.3862,5.38533 42.3862,3.88533 43.5,2.5 Z"/></g>
<g><path style="opacity:1" fill="#191919" d="M 52.5,17.5 C 53.8734,17.3433 55.2068,17.51 56.5,18C 54.8599,20.3388 52.8599,21.1721 50.5,20.5C 51.1925,19.4822 51.8592,18.4822 52.5,17.5 Z"/></g>
<g><path style="opacity:1" fill="#191919" d="M 54.5,36.5 C 56.6957,36.5652 58.6957,37.2319 60.5,38.5C 58.9255,39.6309 57.2588,39.7975 55.5,39C 54.7476,38.3292 54.4142,37.4959 54.5,36.5 Z"/></g>
<g><path style="opacity:1" fill="#1b1b1b" d="M 30.5,7.5 C 31.9778,7.23798 33.3112,7.57131 34.5,8.5C 36.5,12.5 38.5,16.5 40.5,20.5C 46.3361,21.4543 47.6695,24.2876 44.5,29C 46.5,33.6667 48.5,38.3333 50.5,43C 50.2664,44.7324 49.2664,45.5658 47.5,45.5C 41.3738,41.7264 34.7071,40.5597 27.5,42C 26.6886,44.1052 25.6886,46.1052 24.5,48C 26.9984,51.497 27.8317,55.3303 27,59.5C 25.3333,60.8333 23.6667,60.8333 22,59.5C 19.9586,55.9162 17.792,52.4162 15.5,49C 5.87922,49.3815 2.04589,44.8815 4,35.5C 8.5819,31.4553 13.7486,28.2886 19.5,26C 26.1159,21.6036 29.7826,15.4369 30.5,7.5 Z"/></g>
<g><path style="opacity:1" fill="#f5f5f5" d="M 12.5,31.5 C 15.5328,34.5282 17.8661,38.1948 19.5,42.5C 15.8021,46.4465 11.6355,47.1132 7,44.5C 5.57834,41.9699 5.24501,39.3033 6,36.5C 7.96514,34.4497 10.1318,32.783 12.5,31.5 Z"/></g>
<g><path style="opacity:1" fill="#bebebe" d="M 41.5,24.5 C 42.7434,23.2625 43.7434,23.5959 44.5,25.5C 44.1667,25.8333 43.8333,26.1667 43.5,26.5C 42.8182,25.7573 42.1515,25.0906 41.5,24.5 Z"/></g>
<g><path style="opacity:1" fill="#f6f6f6" d="M 31.5,9.5 C 32.7498,9.57735 33.5831,10.244 34,11.5C 38.7367,21.8759 43.57,32.2093 48.5,42.5C 48.1667,42.8333 47.8333,43.1667 47.5,43.5C 41.3677,39.7264 34.7011,38.5598 27.5,40C 25.481,40.4497 23.6477,41.283 22,42.5C 20.0464,38.7583 18.2131,34.925 16.5,31C 19.9803,28.1909 23.4803,25.3576 27,22.5C 29.9923,18.6901 31.4923,14.3568 31.5,9.5 Z"/></g>
<g><path style="opacity:1" fill="#919191" d="M 22.5,43.5 C 24.337,43.6395 24.6704,44.3061 23.5,45.5C 22.7025,45.0431 22.3691,44.3764 22.5,43.5 Z"/></g>
<g><path style="opacity:1" fill="#e4e4e4" d="M 18.5,45.5 C 19.5,45.5 20.5,45.5 21.5,45.5C 22.5377,49.2482 23.871,52.9149 25.5,56.5C 25.1667,57.1667 24.8333,57.8333 24.5,58.5C 22.3454,55.5378 20.1788,52.5378 18,49.5C 17.4209,48.0715 17.5876,46.7382 18.5,45.5 Z"/></g>
</svg>
