<?xml version="1.0" encoding="UTF-8"?>
<!DOCTYPE svg PUBLIC "-//W3C//DTD SVG 1.1//EN" "http://www.w3.org/Graphics/SVG/1.1/DTD/svg11.dtd">
<svg xmlns="http://www.w3.org/2000/svg" version="1.1" width="64px" height="64px" style="shape-rendering:geometricPrecision; text-rendering:geometricPrecision; image-rendering:optimizeQuality; fill-rule:evenodd; clip-rule:evenodd" xmlns:xlink="http://www.w3.org/1999/xlink">
<g><path style="opacity:1" fill="#fcfcfc" d="M -0.5,-0.5 C 20.8333,-0.5 42.1667,-0.5 63.5,-0.5C 63.5,20.8333 63.5,42.1667 63.5,63.5C 42.1667,63.5 20.8333,63.5 -0.5,63.5C -0.5,42.1667 -0.5,20.8333 -0.5,-0.5 Z"/></g>
<g><path style="opacity:1" fill="#343434" d="M 24.5,4.5 C 47.822,3.32261 58.9886,14.3226 58,37.5C 52.7,53.0683 41.8667,59.9017 25.5,58C 9.64123,52.4622 2.80789,41.2956 5,24.5C 8.3514,14.6498 14.8514,7.98314 24.5,4.5 Z"/></g>
<g><path style="opacity:1" fill="#fafafa" d="M 23.5,6.5 C 37.7576,3.88062 48.2576,8.88062 55,21.5C 59.6121,41.9669 51.6121,53.6335 31,56.5C 11.9756,53.7787 3.97557,42.7787 7,23.5C 10.0191,15.3156 15.5191,9.64896 23.5,6.5 Z"/></g>
<g><path style="opacity:1" fill="#0d0d0d" d="M 34.5,19.5 C 38.3497,20.1649 42.0163,20.6649 45.5,21C 43.6873,25.8184 41.854,30.985 40,36.5C 33.5357,43.657 26.0357,45.157 17.5,41C 20.1193,40.8485 22.4527,40.0152 24.5,38.5C 23.1667,37.5 21.8333,36.5 20.5,35.5C 20.7093,34.914 21.0426,34.414 21.5,34C 20.1007,32.9384 19.1007,31.605 18.5,30C 18.6239,26.9875 18.7906,23.8208 19,20.5C 22.0068,24.2522 25.8401,26.2522 30.5,26.5C 30.9613,23.6967 32.2947,21.3634 34.5,19.5 Z"/></g>
</svg>
